# Blender 3.5.1
# www.blender.org
mtllib towers.mtl
o Cube
v -10.000000 0.000000 10.000000
v -9.469026 100.000000 9.469026
v -10.000000 0.000000 -10.000000
v -9.469026 100.000000 -9.469026
v 10.000000 0.000000 10.000000
v 9.469026 100.000000 9.469026
v 10.000000 0.000000 -10.000000
v 9.469026 100.000000 -9.469026
v -10.000000 30.196079 10.000000
v -10.000000 63.529411 10.000000
v -10.000000 63.529411 -10.000000
v -10.000000 30.196079 -10.000000
v 10.000000 63.529411 -10.000000
v 10.000000 30.196079 -10.000000
v 10.000000 63.529411 10.000000
v 10.000000 30.196079 10.000000
v 10.000000 66.289200 10.000000
v -10.000000 66.354279 -10.000000
v 10.000000 66.345299 -10.000000
v -10.000000 66.300903 10.000000
v -10.000000 63.529411 10.000000
v 10.000000 33.369614 -10.000000
v -10.000000 33.393620 10.000000
v 10.000000 33.391388 10.000000
v -10.000000 33.384407 -10.000000
v 10.500000 33.369614 -10.000000
v 10.500000 30.196079 -10.000000
v 10.500000 33.391388 10.000000
v 10.500000 30.196079 10.000000
v -10.500000 33.384407 -10.000000
v -10.500000 30.196079 -10.000000
v -10.500000 30.196079 10.000000
v -10.500000 33.393620 10.000000
v 10.000000 33.391388 10.500000
v 10.000000 30.196079 10.500000
v -10.000000 30.196079 10.500000
v -10.000000 33.393620 10.500000
v 10.500000 33.391388 10.500000
v 10.500000 30.196079 10.500000
v -10.500000 30.196079 10.500000
v -10.500000 33.393620 10.500000
v -10.000000 33.384407 -10.500000
v -10.000000 30.196079 -10.500000
v 10.000000 33.369614 -10.500000
v 10.000000 30.196079 -10.500000
v 10.500000 33.369614 -10.500000
v 10.500000 30.196079 -10.500000
v -10.500000 33.384407 -10.500000
v -10.500000 30.196079 -10.500000
v 10.500000 66.345299 -10.000000
v 10.500000 63.529411 -10.000000
v 10.500000 66.289200 10.000000
v 10.500000 63.529411 10.000000
v -10.000000 63.529411 -10.000000
v -10.500000 66.354279 -10.000000
v -10.500000 66.300903 10.000000
v -10.500000 63.529411 -10.000000
v -10.500000 63.529411 10.000000
v 10.000000 66.289200 10.500000
v 10.000000 63.529411 10.500000
v -10.000000 63.529411 10.500000
v -10.000000 66.300903 10.500000
v 10.500000 66.289200 10.500000
v 10.500000 63.529411 10.500000
v -10.500000 63.529411 10.500000
v -10.500000 66.300903 10.500000
v -10.000000 66.354279 -10.500000
v -10.000000 63.529411 -10.500000
v 10.000000 66.345299 -10.500000
v 10.000000 63.529411 -10.500000
v 10.500000 66.345299 -10.500000
v 10.500000 63.529411 -10.500000
v -10.500000 66.354279 -10.500000
v -10.500000 63.529411 -10.500000
v -10.000000 100.000000 10.000000
v -10.000000 100.000000 -10.000000
v 10.000000 100.000000 -10.000000
v 10.000000 100.000000 10.000000
v -9.469026 101.000000 9.469026
v -9.469026 101.000000 -9.469026
v 9.469026 101.000000 -9.469026
v 9.469026 101.000000 9.469026
v 10.000000 98.791832 10.000000
v 10.000000 98.758171 -10.000000
v -10.000000 98.833778 -10.000000
v -10.000000 98.755386 -10.000000
v -10.000000 98.845642 10.000000
v 10.299999 100.000000 -10.000000
v 10.299999 100.000000 10.000000
v 10.299999 98.791832 10.000000
v 10.299999 98.758171 -10.000000
v -10.299999 100.000000 10.000000
v -10.299999 100.000000 -10.000000
v -10.299999 98.845642 10.000000
v -10.299999 98.833778 -10.000000
v 10.000000 100.000000 10.299999
v -10.000000 100.000000 10.299999
v -10.000000 98.845642 10.299999
v 10.000000 98.791832 10.299999
v 10.299999 100.000000 10.299999
v 10.299999 98.791832 10.299999
v -10.299999 98.845642 10.299999
v -10.299999 100.000000 10.299999
v -10.000000 100.000000 -10.299999
v 10.000000 100.000000 -10.299999
v 10.000000 98.758171 -10.299999
v -10.000000 98.833778 -10.299999
v -10.000000 98.755386 -10.299999
v 10.299999 100.000000 -10.299999
v 10.299999 98.758171 -10.299999
v -10.299999 100.000000 -10.299999
v -10.299999 98.833778 -10.299999
vn -0.0000 1.0000 -0.0000
vn -0.0000 -1.0000 -0.0000
vn -0.0000 -0.0000 -1.0000
vn -0.0000 -0.0000 1.0000
vn 1.0000 -0.0000 -0.0000
vn -1.0000 -0.0000 -0.0000
vn -0.0000 1.0000 -0.0011
vn -0.0000 1.0000 -0.0005
vn 0.0001 1.0000 -0.0000
vn 0.0007 1.0000 -0.0000
vn -0.0000 1.0000 0.0028
vn -0.0000 1.0000 0.0027
vn 0.0006 1.0000 -0.0000
vn 0.0004 1.0000 -0.0000
vn -0.0000 -1.0000 0.0017
vn 0.0001 -1.0000 -0.0000
vn -0.0000 -1.0000 0.0006
vn -0.0027 -1.0000 -0.0000
vt 0.125000 0.750000
vt 0.375000 1.000000
vt 0.375000 0.000000
vt 0.868363 0.743363
vt 0.125000 0.500000
vt 0.375000 0.250000
vt 0.868363 0.506637
vt 0.375000 0.750000
vt 0.631637 0.743363
vt 0.375000 0.500000
vt 0.631637 0.506637
vt 0.450490 1.000000
vt 0.450490 0.000000
vt 0.533823 0.000000
vt 0.533823 1.000000
vt 0.533823 0.250000
vt 0.450490 0.250000
vt 0.533823 0.500000
vt 0.450490 0.500000
vt 0.533823 0.750000
vt 0.450490 0.750000
vt 0.540723 0.750000
vt 0.540886 0.250000
vt 0.540863 0.500000
vt 0.540752 1.000000
vt 0.540752 0.000000
vt 0.533823 0.000000
vt 0.458424 0.500000
vt 0.458484 1.000000
vt 0.458484 0.000000
vt 0.458478 0.750000
vt 0.458461 0.250000
vt 0.458424 0.500000
vt 0.450490 0.500000
vt 0.458478 0.750000
vt 0.450490 0.750000
vt 0.458461 0.250000
vt 0.450490 0.250000
vt 0.450490 0.000000
vt 0.458484 0.000000
vt 0.458478 0.750000
vt 0.450490 0.750000
vt 0.450490 1.000000
vt 0.450490 0.000000
vt 0.458484 1.000000
vt 0.458484 0.000000
vt 0.458478 0.750000
vt 0.450490 0.750000
vt 0.450490 1.000000
vt 0.450490 0.000000
vt 0.458484 1.000000
vt 0.458484 0.000000
vt 0.458461 0.250000
vt 0.450490 0.250000
vt 0.458424 0.500000
vt 0.450490 0.500000
vt 0.458424 0.500000
vt 0.450490 0.500000
vt 0.458461 0.250000
vt 0.450490 0.250000
vt 0.540863 0.500000
vt 0.533823 0.500000
vt 0.540723 0.750000
vt 0.533823 0.750000
vt 0.533823 0.250000
vt 0.540886 0.250000
vt 0.540752 0.000000
vt 0.533823 0.250000
vt 0.533823 0.000000
vt 0.540723 0.750000
vt 0.533823 0.750000
vt 0.533823 0.000000
vt 0.533823 1.000000
vt 0.540752 1.000000
vt 0.540752 0.000000
vt 0.540723 0.750000
vt 0.533823 0.750000
vt 0.533823 1.000000
vt 0.533823 0.000000
vt 0.540752 1.000000
vt 0.540752 0.000000
vt 0.540886 0.250000
vt 0.533823 0.250000
vt 0.540863 0.500000
vt 0.533823 0.500000
vt 0.540863 0.500000
vt 0.533823 0.500000
vt 0.540886 0.250000
vt 0.533823 0.250000
vt 0.875000 0.750000
vt 0.875000 0.500000
vt 0.625000 0.500000
vt 0.625000 0.750000
vt 0.868363 0.743363
vt 0.868363 0.506637
vt 0.631637 0.506637
vt 0.631637 0.743363
vt 0.621980 0.750000
vt 0.621895 0.500000
vt 0.622084 0.250000
vt 0.621888 0.250000
vt 0.622114 1.000000
vt 0.622114 0.000000
vt 0.625000 0.500000
vt 0.625000 0.750000
vt 0.621980 0.750000
vt 0.621895 0.500000
vt 0.875000 0.750000
vt 0.625000 0.000000
vt 0.875000 0.500000
vt 0.625000 0.250000
vt 0.622114 0.000000
vt 0.622084 0.250000
vt 0.625000 0.750000
vt 0.625000 1.000000
vt 0.875000 0.750000
vt 0.622114 1.000000
vt 0.622114 0.000000
vt 0.621980 0.750000
vt 0.625000 0.750000
vt 0.621980 0.750000
vt 0.622114 1.000000
vt 0.622114 0.000000
vt 0.625000 0.000000
vt 0.875000 0.750000
vt 0.625000 1.000000
vt 0.625000 0.250000
vt 0.875000 0.500000
vt 0.625000 0.500000
vt 0.621895 0.500000
vt 0.622084 0.250000
vt 0.621888 0.250000
vt 0.625000 0.500000
vt 0.621895 0.500000
vt 0.875000 0.500000
vt 0.625000 0.250000
vt 0.622084 0.250000
s 0
f 10/14/1 11/16/1 54/65/1 21/27/1
f 13/18/2 11/16/2 68/83/2 70/85/2
f 15/20/2 13/18/2 51/62/2 53/64/2
f 52/63/1 17/22/1 59/70/1 63/76/1
f 3/5/2 7/10/2 5/8/2 1/1/2
f 8/11/3 4/7/3 80/95/3 81/96/3
f 5/8/4 16/21/4 9/12/4 1/2/4
f 16/21/2 29/36/2 39/48/2 35/42/2
f 7/10/5 14/19/5 16/21/5 5/8/5
f 9/12/2 16/21/2 35/42/2 36/43/2
f 3/6/3 12/17/3 14/19/3 7/10/3
f 14/19/2 12/17/2 43/54/2 45/56/2
f 1/3/6 9/13/6 12/17/6 3/6/6
f 33/40/6 32/39/6 40/50/6 41/52/6
f 17/22/5 19/24/5 84/99/5 83/98/5
f 20/25/4 17/22/4 83/98/4 87/102/4
f 50/61/5 51/62/5 72/87/5 71/86/5
f 19/24/3 18/23/3 86/101/3 84/99/3
f 24/31/5 22/28/5 13/18/5 15/20/5
f 25/32/6 23/30/6 10/14/6 11/16/6
f 23/29/4 24/31/4 15/20/4 10/15/4
f 22/28/3 25/32/3 11/16/3 13/18/3
f 27/34/5 26/33/5 28/35/5 29/36/5
f 22/28/7 24/31/7 28/35/7 26/33/7
f 12/17/2 31/38/2 49/60/2 43/54/2
f 16/21/2 14/19/2 27/34/2 29/36/2
f 32/39/6 33/40/6 30/37/6 31/38/6
f 27/34/2 14/19/2 45/56/2 47/58/2
f 12/17/2 9/13/2 32/39/2 31/38/2
f 23/30/8 25/32/8 30/37/8 33/40/8
f 35/42/4 34/41/4 37/45/4 36/43/4
f 34/41/4 35/42/4 39/48/4 38/47/4
f 36/43/4 37/45/4 41/51/4 40/49/4
f 32/39/2 9/13/2 36/44/2 40/50/2
f 24/31/9 23/29/9 37/45/9 34/41/9
f 28/35/1 24/31/1 34/41/1 38/47/1
f 23/30/1 33/40/1 41/52/1 37/46/1
f 29/36/5 28/35/5 38/47/5 39/48/5
f 43/54/3 42/53/3 44/55/3 45/56/3
f 45/56/3 44/55/3 46/57/3 47/58/3
f 42/53/3 43/54/3 49/60/3 48/59/3
f 25/32/10 22/28/10 44/55/10 42/53/10
f 31/38/6 30/37/6 48/59/6 49/60/6
f 22/28/1 26/33/1 46/57/1 44/55/1
f 30/37/1 25/32/1 42/53/1 48/59/1
f 26/33/5 27/34/5 47/58/5 46/57/5
f 51/62/5 50/61/5 52/63/5 53/64/5
f 19/24/11 17/22/11 52/63/11 50/61/11
f 58/69/2 10/14/2 61/72/2 65/79/2
f 57/68/6 55/66/6 73/88/6 74/89/6
f 75/90/1 76/91/1 93/110/1 92/108/1
f 56/67/6 55/66/6 57/68/6 58/69/6
f 20/26/12 18/23/12 55/66/12 56/67/12
f 53/64/5 52/63/5 63/76/5 64/77/5
f 11/16/2 10/14/2 58/69/2 57/68/2
f 60/71/4 59/70/4 62/74/4 61/73/4
f 59/70/4 60/71/4 64/77/4 63/76/4
f 61/73/4 62/74/4 66/80/4 65/78/4
f 56/67/6 58/69/6 65/79/6 66/81/6
f 17/22/13 20/25/13 62/74/13 59/70/13
f 20/26/1 56/67/1 66/81/1 62/75/1
f 10/15/2 15/20/2 60/71/2 61/73/2
f 15/20/2 53/64/2 64/77/2 60/71/2
f 68/83/3 67/82/3 69/84/3 70/85/3
f 67/82/3 68/83/3 74/89/3 73/88/3
f 70/85/3 69/84/3 71/86/3 72/87/3
f 18/23/14 19/24/14 69/84/14 67/82/14
f 19/24/1 50/61/1 71/86/1 69/84/1
f 11/16/2 57/68/2 74/89/2 68/83/2
f 55/66/1 18/23/1 67/82/1 73/88/1
f 51/62/2 13/18/2 70/85/2 72/87/2
f 2/4/1 4/7/1 76/91/1 75/90/1
f 4/7/1 8/11/1 77/92/1 76/91/1
f 8/11/1 6/9/1 78/93/1 77/92/1
f 6/9/1 2/4/1 75/90/1 78/93/1
f 81/96/1 80/95/1 79/94/1 82/97/1
f 6/9/5 8/11/5 81/96/5 82/97/5
f 4/7/6 2/4/6 79/94/6 80/95/6
f 2/4/4 6/9/4 82/97/4 79/94/4
f 92/109/6 94/112/6 102/123/6 103/124/6
f 87/103/6 85/100/6 86/101/6 18/23/6 20/26/6
f 93/110/1 76/91/1 104/128/1 111/135/1
f 83/98/15 84/99/15 91/107/15 90/106/15
f 90/106/5 91/107/5 88/104/5 89/105/5
f 75/90/1 92/108/1 103/125/1 97/116/1
f 77/92/1 78/93/1 89/105/1 88/104/1
f 84/99/16 86/101/16 108/132/16 106/130/16
f 92/109/6 93/111/6 95/113/6 94/112/6
f 85/100/17 87/103/17 94/112/17 95/113/17
f 85/100/2 95/113/2 112/137/2 107/131/2
f 89/105/1 78/93/1 96/114/1 100/120/1
f 98/117/4 99/119/4 96/114/4 97/115/4
f 96/114/4 99/119/4 101/121/4 100/120/4
f 98/117/4 97/115/4 103/126/4 102/122/4
f 87/102/18 83/98/18 99/119/18 98/117/18
f 83/98/2 90/106/2 101/121/2 99/119/2
f 94/112/2 87/103/2 98/118/2 102/123/2
f 90/106/5 89/105/5 100/120/5 101/121/5
f 78/93/1 75/90/1 97/116/1 96/114/1
f 106/130/3 108/132/3 107/131/3 104/127/3 105/129/3
f 106/130/3 105/129/3 109/133/3 110/134/3
f 104/127/3 107/131/3 112/137/3 111/136/3
f 88/104/5 91/107/5 110/134/5 109/133/5
f 95/113/6 93/111/6 111/136/6 112/137/6
f 76/91/1 77/92/1 105/129/1 104/128/1
f 77/92/1 88/104/1 109/133/1 105/129/1
f 91/107/2 84/99/2 106/130/2 110/134/2
f 86/101/6 85/100/6 107/131/6 108/132/6
o Cube.001
v 0.000000 0.000000 -30.000000
v 0.530974 100.000000 -30.530975
v 0.000000 0.000000 -50.000000
v 0.530974 100.000000 -49.469025
v 20.000000 0.000000 -30.000000
v 19.469025 100.000000 -30.530975
v 20.000000 0.000000 -50.000000
v 19.469025 100.000000 -49.469025
v 0.000000 30.196079 -30.000000
v 0.000000 63.529411 -30.000000
v 0.000000 63.529411 -50.000000
v 0.000000 30.196079 -50.000000
v 20.000000 63.529411 -50.000000
v 20.000000 30.196079 -50.000000
v 20.000000 63.529411 -30.000000
v 20.000000 30.196079 -30.000000
v 20.000000 66.289200 -30.000000
v 0.000000 66.354279 -50.000000
v 20.000000 66.345299 -50.000000
v 0.000000 66.300903 -30.000000
v 0.000000 63.529411 -30.000000
v 20.000000 33.369614 -50.000000
v 0.000000 33.393620 -30.000000
v 20.000000 33.391388 -30.000000
v 0.000000 33.384407 -50.000000
v 20.500000 33.369614 -50.000000
v 20.500000 30.196079 -50.000000
v 20.500000 33.391388 -30.000000
v 20.500000 30.196079 -30.000000
v -0.500000 33.384407 -50.000000
v -0.500000 30.196079 -50.000000
v -0.500000 30.196079 -30.000000
v -0.500000 33.393620 -30.000000
v 20.000000 33.391388 -29.500000
v 20.000000 30.196079 -29.500000
v 0.000000 30.196079 -29.500000
v 0.000000 33.393620 -29.500000
v 20.500000 33.391388 -29.500000
v 20.500000 30.196079 -29.500000
v -0.500000 30.196079 -29.500000
v -0.500000 33.393620 -29.500000
v 0.000000 33.384407 -50.500000
v 0.000000 30.196079 -50.500000
v 20.000000 33.369614 -50.500000
v 20.000000 30.196079 -50.500000
v 20.500000 33.369614 -50.500000
v 20.500000 30.196079 -50.500000
v -0.500000 33.384407 -50.500000
v -0.500000 30.196079 -50.500000
v 20.500000 66.345299 -50.000000
v 20.500000 63.529411 -50.000000
v 20.500000 66.289200 -30.000000
v 20.500000 63.529411 -30.000000
v 0.000000 63.529411 -50.000000
v -0.500000 66.354279 -50.000000
v -0.500000 66.300903 -30.000000
v -0.500000 63.529411 -50.000000
v -0.500000 63.529411 -30.000000
v 20.000000 66.289200 -29.500000
v 20.000000 63.529411 -29.500000
v 0.000000 63.529411 -29.500000
v 0.000000 66.300903 -29.500000
v 20.500000 66.289200 -29.500000
v 20.500000 63.529411 -29.500000
v -0.500000 63.529411 -29.500000
v -0.500000 66.300903 -29.500000
v 0.000000 66.354279 -50.500000
v 0.000000 63.529411 -50.500000
v 20.000000 66.345299 -50.500000
v 20.000000 63.529411 -50.500000
v 20.500000 66.345299 -50.500000
v 20.500000 63.529411 -50.500000
v -0.500000 66.354279 -50.500000
v -0.500000 63.529411 -50.500000
v 0.000000 100.000000 -30.000000
v 0.000000 100.000000 -50.000000
v 20.000000 100.000000 -50.000000
v 20.000000 100.000000 -30.000000
v 9.038859 101.000000 -39.038860
v 9.038859 101.000000 -40.961140
v 10.961141 101.000000 -40.961140
v 10.961141 101.000000 -39.038860
v 20.000000 98.791832 -30.000000
v 20.000000 98.758171 -50.000000
v 0.000000 98.833778 -50.000000
v 0.000000 98.755386 -50.000000
v 0.000000 98.845642 -30.000000
v 20.299999 100.000000 -50.000000
v 20.299999 100.000000 -30.000000
v 20.299999 98.791832 -30.000000
v 20.299999 98.758171 -50.000000
v -0.299999 100.000000 -30.000000
v -0.299999 100.000000 -50.000000
v -0.299999 98.845642 -30.000000
v -0.299999 98.833778 -50.000000
v 20.000000 100.000000 -29.700001
v 0.000000 100.000000 -29.700001
v 0.000000 98.845642 -29.700001
v 20.000000 98.791832 -29.700001
v 20.299999 100.000000 -29.700001
v 20.299999 98.791832 -29.700001
v -0.299999 98.845642 -29.700001
v -0.299999 100.000000 -29.700001
v 0.000000 100.000000 -50.299999
v 20.000000 100.000000 -50.299999
v 20.000000 98.758171 -50.299999
v 0.000000 98.833778 -50.299999
v 0.000000 98.755386 -50.299999
v 20.299999 100.000000 -50.299999
v 20.299999 98.758171 -50.299999
v -0.299999 100.000000 -50.299999
v -0.299999 98.833778 -50.299999
v 0.530974 101.000000 -30.530975
v 0.530974 101.000000 -49.469025
v 19.469025 101.000000 -49.469025
v 19.469025 101.000000 -30.530975
v 9.038859 116.792915 -39.038860
v 9.038859 116.792915 -40.961140
v 10.961141 116.792915 -40.961140
v 10.961141 116.792915 -39.038860
vn -0.0000 1.0000 -0.0000
vn -0.0000 -1.0000 -0.0000
vn -0.0000 -0.0000 -1.0000
vn -0.0000 -0.0000 1.0000
vn 1.0000 -0.0000 -0.0000
vn -1.0000 -0.0000 -0.0000
vn -0.0000 1.0000 -0.0011
vn -0.0000 1.0000 -0.0005
vn 0.0001 1.0000 -0.0000
vn 0.0007 1.0000 -0.0000
vn -0.0000 1.0000 0.0028
vn -0.0000 1.0000 0.0027
vn 0.0006 1.0000 -0.0000
vn 0.0004 1.0000 -0.0000
vn -0.0000 -1.0000 0.0017
vn 0.0001 -1.0000 -0.0000
vn -0.0000 -1.0000 0.0006
vn -0.0027 -1.0000 -0.0000
vt 0.125000 0.750000
vt 0.375000 1.000000
vt 0.375000 0.000000
vt 0.868363 0.743363
vt 0.125000 0.500000
vt 0.375000 0.250000
vt 0.868363 0.506637
vt 0.375000 0.750000
vt 0.631637 0.743363
vt 0.375000 0.500000
vt 0.631637 0.506637
vt 0.450490 1.000000
vt 0.450490 0.000000
vt 0.533823 0.000000
vt 0.533823 1.000000
vt 0.533823 0.250000
vt 0.450490 0.250000
vt 0.533823 0.500000
vt 0.450490 0.500000
vt 0.533823 0.750000
vt 0.450490 0.750000
vt 0.540723 0.750000
vt 0.540886 0.250000
vt 0.540863 0.500000
vt 0.540752 1.000000
vt 0.540752 0.000000
vt 0.533823 0.000000
vt 0.458424 0.500000
vt 0.458484 1.000000
vt 0.458484 0.000000
vt 0.458478 0.750000
vt 0.458461 0.250000
vt 0.458424 0.500000
vt 0.450490 0.500000
vt 0.458478 0.750000
vt 0.450490 0.750000
vt 0.458461 0.250000
vt 0.450490 0.250000
vt 0.450490 0.000000
vt 0.458484 0.000000
vt 0.458478 0.750000
vt 0.450490 0.750000
vt 0.450490 1.000000
vt 0.450490 0.000000
vt 0.458484 1.000000
vt 0.458484 0.000000
vt 0.458478 0.750000
vt 0.450490 0.750000
vt 0.450490 1.000000
vt 0.450490 0.000000
vt 0.458484 1.000000
vt 0.458484 0.000000
vt 0.458461 0.250000
vt 0.450490 0.250000
vt 0.458424 0.500000
vt 0.450490 0.500000
vt 0.458424 0.500000
vt 0.450490 0.500000
vt 0.458461 0.250000
vt 0.450490 0.250000
vt 0.540863 0.500000
vt 0.533823 0.500000
vt 0.540723 0.750000
vt 0.533823 0.750000
vt 0.533823 0.250000
vt 0.540886 0.250000
vt 0.540752 0.000000
vt 0.533823 0.250000
vt 0.533823 0.000000
vt 0.540723 0.750000
vt 0.533823 0.750000
vt 0.533823 0.000000
vt 0.533823 1.000000
vt 0.540752 1.000000
vt 0.540752 0.000000
vt 0.540723 0.750000
vt 0.533823 0.750000
vt 0.533823 1.000000
vt 0.533823 0.000000
vt 0.540752 1.000000
vt 0.540752 0.000000
vt 0.540886 0.250000
vt 0.533823 0.250000
vt 0.540863 0.500000
vt 0.533823 0.500000
vt 0.540863 0.500000
vt 0.533823 0.500000
vt 0.540886 0.250000
vt 0.533823 0.250000
vt 0.875000 0.750000
vt 0.875000 0.500000
vt 0.625000 0.500000
vt 0.625000 0.750000
vt 0.762014 0.637014
vt 0.762014 0.612986
vt 0.737986 0.612986
vt 0.737986 0.637014
vt 0.621980 0.750000
vt 0.621895 0.500000
vt 0.622084 0.250000
vt 0.621888 0.250000
vt 0.622114 1.000000
vt 0.622114 0.000000
vt 0.625000 0.500000
vt 0.625000 0.750000
vt 0.621980 0.750000
vt 0.621895 0.500000
vt 0.875000 0.750000
vt 0.625000 0.000000
vt 0.875000 0.500000
vt 0.625000 0.250000
vt 0.622114 0.000000
vt 0.622084 0.250000
vt 0.625000 0.750000
vt 0.625000 1.000000
vt 0.875000 0.750000
vt 0.622114 1.000000
vt 0.622114 0.000000
vt 0.621980 0.750000
vt 0.625000 0.750000
vt 0.621980 0.750000
vt 0.622114 1.000000
vt 0.622114 0.000000
vt 0.625000 0.000000
vt 0.875000 0.750000
vt 0.625000 1.000000
vt 0.625000 0.250000
vt 0.875000 0.500000
vt 0.625000 0.500000
vt 0.621895 0.500000
vt 0.622084 0.250000
vt 0.621888 0.250000
vt 0.625000 0.500000
vt 0.621895 0.500000
vt 0.875000 0.500000
vt 0.625000 0.250000
vt 0.622084 0.250000
vt 0.868363 0.743363
vt 0.868363 0.506637
vt 0.631637 0.506637
vt 0.631637 0.743363
vt 0.762014 0.637014
vt 0.762014 0.612986
vt 0.737986 0.612986
vt 0.737986 0.637014
s 0
f 122/151/19 123/153/19 166/202/19 133/164/19
f 125/155/20 123/153/20 180/220/20 182/222/20
f 127/157/20 125/155/20 163/199/20 165/201/20
f 164/200/19 129/159/19 171/207/19 175/213/19
f 115/142/20 119/147/20 117/145/20 113/138/20
f 120/148/21 116/144/21 226/276/21 227/277/21
f 117/145/22 128/158/22 121/149/22 113/139/22
f 128/158/20 141/173/20 151/185/20 147/179/20
f 119/147/23 126/156/23 128/158/23 117/145/23
f 121/149/20 128/158/20 147/179/20 148/180/20
f 115/143/21 124/154/21 126/156/21 119/147/21
f 126/156/20 124/154/20 155/191/20 157/193/20
f 113/140/24 121/150/24 124/154/24 115/143/24
f 145/177/24 144/176/24 152/187/24 153/189/24
f 129/159/23 131/161/23 196/236/23 195/235/23
f 132/162/22 129/159/22 195/235/22 199/239/22
f 162/198/23 163/199/23 184/224/23 183/223/23
f 131/161/21 130/160/21 198/238/21 196/236/21
f 136/168/23 134/165/23 125/155/23 127/157/23
f 137/169/24 135/167/24 122/151/24 123/153/24
f 135/166/22 136/168/22 127/157/22 122/152/22
f 134/165/21 137/169/21 123/153/21 125/155/21
f 139/171/23 138/170/23 140/172/23 141/173/23
f 134/165/25 136/168/25 140/172/25 138/170/25
f 124/154/20 143/175/20 161/197/20 155/191/20
f 128/158/20 126/156/20 139/171/20 141/173/20
f 144/176/24 145/177/24 142/174/24 143/175/24
f 139/171/20 126/156/20 157/193/20 159/195/20
f 124/154/20 121/150/20 144/176/20 143/175/20
f 135/167/26 137/169/26 142/174/26 145/177/26
f 147/179/22 146/178/22 149/182/22 148/180/22
f 146/178/22 147/179/22 151/185/22 150/184/22
f 148/180/22 149/182/22 153/188/22 152/186/22
f 144/176/20 121/150/20 148/181/20 152/187/20
f 136/168/27 135/166/27 149/182/27 146/178/27
f 140/172/19 136/168/19 146/178/19 150/184/19
f 135/167/19 145/177/19 153/189/19 149/183/19
f 141/173/23 140/172/23 150/184/23 151/185/23
f 155/191/21 154/190/21 156/192/21 157/193/21
f 157/193/21 156/192/21 158/194/21 159/195/21
f 154/190/21 155/191/21 161/197/21 160/196/21
f 137/169/28 134/165/28 156/192/28 154/190/28
f 143/175/24 142/174/24 160/196/24 161/197/24
f 134/165/19 138/170/19 158/194/19 156/192/19
f 142/174/19 137/169/19 154/190/19 160/196/19
f 138/170/23 139/171/23 159/195/23 158/194/23
f 163/199/23 162/198/23 164/200/23 165/201/23
f 131/161/29 129/159/29 164/200/29 162/198/29
f 170/206/20 122/151/20 173/209/20 177/216/20
f 169/205/24 167/203/24 185/225/24 186/226/24
f 187/227/19 188/228/19 205/247/19 204/245/19
f 168/204/24 167/203/24 169/205/24 170/206/24
f 132/163/30 130/160/30 167/203/30 168/204/30
f 165/201/23 164/200/23 175/213/23 176/214/23
f 123/153/20 122/151/20 170/206/20 169/205/20
f 172/208/22 171/207/22 174/211/22 173/210/22
f 171/207/22 172/208/22 176/214/22 175/213/22
f 173/210/22 174/211/22 178/217/22 177/215/22
f 168/204/24 170/206/24 177/216/24 178/218/24
f 129/159/31 132/162/31 174/211/31 171/207/31
f 132/163/19 168/204/19 178/218/19 174/212/19
f 122/152/20 127/157/20 172/208/20 173/210/20
f 127/157/20 165/201/20 176/214/20 172/208/20
f 180/220/21 179/219/21 181/221/21 182/222/21
f 179/219/21 180/220/21 186/226/21 185/225/21
f 182/222/21 181/221/21 183/223/21 184/224/21
f 130/160/32 131/161/32 181/221/32 179/219/32
f 131/161/19 162/198/19 183/223/19 181/221/19
f 123/153/20 169/205/20 186/226/20 180/220/20
f 167/203/19 130/160/19 179/219/19 185/225/19
f 163/199/20 125/155/20 182/222/20 184/224/20
f 114/141/19 116/144/19 188/228/19 187/227/19
f 116/144/19 120/148/19 189/229/19 188/228/19
f 120/148/19 118/146/19 190/230/19 189/229/19
f 118/146/19 114/141/19 187/227/19 190/230/19
f 194/234/23 193/233/23 231/281/23 232/282/23
f 118/146/23 120/148/23 227/277/23 228/278/23
f 116/144/24 114/141/24 225/275/24 226/276/24
f 114/141/22 118/146/22 228/278/22 225/275/22
f 204/246/24 206/249/24 214/260/24 215/261/24
f 199/240/24 197/237/24 198/238/24 130/160/24 132/163/24
f 205/247/19 188/228/19 216/265/19 223/272/19
f 195/235/33 196/236/33 203/244/33 202/243/33
f 202/243/23 203/244/23 200/241/23 201/242/23
f 187/227/19 204/245/19 215/262/19 209/253/19
f 189/229/19 190/230/19 201/242/19 200/241/19
f 196/236/34 198/238/34 220/269/34 218/267/34
f 204/246/24 205/248/24 207/250/24 206/249/24
f 197/237/35 199/240/35 206/249/35 207/250/35
f 197/237/20 207/250/20 224/274/20 219/268/20
f 201/242/19 190/230/19 208/251/19 212/257/19
f 210/254/22 211/256/22 208/251/22 209/252/22
f 208/251/22 211/256/22 213/258/22 212/257/22
f 210/254/22 209/252/22 215/263/22 214/259/22
f 199/239/36 195/235/36 211/256/36 210/254/36
f 195/235/20 202/243/20 213/258/20 211/256/20
f 206/249/20 199/240/20 210/255/20 214/260/20
f 202/243/23 201/242/23 212/257/23 213/258/23
f 190/230/19 187/227/19 209/253/19 208/251/19
f 218/267/21 220/269/21 219/268/21 216/264/21 217/266/21
f 218/267/21 217/266/21 221/270/21 222/271/21
f 216/264/21 219/268/21 224/274/21 223/273/21
f 200/241/23 203/244/23 222/271/23 221/270/23
f 207/250/24 205/248/24 223/273/24 224/274/24
f 188/228/19 189/229/19 217/266/19 216/265/19
f 189/229/19 200/241/19 221/270/19 217/266/19
f 203/244/20 196/236/20 218/267/20 222/271/20
f 198/238/24 197/237/24 219/268/24 220/269/24
f 191/231/19 192/232/19 226/276/19 225/275/19
f 192/232/19 193/233/19 227/277/19 226/276/19
f 193/233/19 194/234/19 228/278/19 227/277/19
f 194/234/19 191/231/19 225/275/19 228/278/19
f 231/281/19 230/280/19 229/279/19 232/282/19
f 192/232/24 191/231/24 229/279/24 230/280/24
f 191/231/22 194/234/22 232/282/22 229/279/22
f 193/233/21 192/232/21 230/280/21 231/281/21
